<?xml version="1.0" encoding="utf-8"?>
<!-- Generator: Adobe Illustrator 18.1.0, SVG Export Plug-In . SVG Version: 6.00 Build 0)  -->
<svg version="1.1" id="Layer_1" xmlns="http://www.w3.org/2000/svg" xmlns:xlink="http://www.w3.org/1999/xlink" x="0px" y="0px"
	 viewBox="0 0 80 80" enable-background="new 0 0 80 80" xml:space="preserve">
<path fill="#2D00FF" d="M76.9,1.7c-1-0.5-2.2-0.3-3.1,0.4l-12.3,9.8V5.2c0-1.6-1.3-2.9-3-2.9H3.9c-1.6,0-3,1.3-3,2.9v62.2
	c0,1.6,1.3,2.9,3,2.9s3-1.3,3-2.9V8.1h11.3v39.8c0,1.1,0.7,2.1,1.7,2.6c1,0.5,2.2,0.3,3.1-0.4l32.6-26v43.3c0,1.2,0.8,2.3,1.9,2.7
	c0.3,0.1,0.7,0.2,1,0.2c0.8,0,1.7-0.4,2.2-1l17.2-19.6c0.5-0.5,0.7-1.2,0.7-1.9V4.3C78.6,3.2,77.9,2.2,76.9,1.7z M72.7,46.8
	L61.4,59.6V19.4l11.3-9V46.8z"/>
</svg>
