<?xml version="1.0" encoding="utf-8"?>
<!-- Generator: Adobe Illustrator 18.1.0, SVG Export Plug-In . SVG Version: 6.00 Build 0)  -->
<svg version="1.1" id="Layer_1" xmlns="http://www.w3.org/2000/svg" xmlns:xlink="http://www.w3.org/1999/xlink" x="0px" y="0px"
	 viewBox="0 0 152.7 156.7" enable-background="new 0 0 152.7 156.7" xml:space="preserve">
<g>
	<defs>
		<polygon id="SVGID_1_" points="39.9,85 39.9,10.3 108.4,11.4 107.4,34.3 		"/>
	</defs>
	<clipPath id="SVGID_2_">
		<use xlink:href="#SVGID_1_"  overflow="visible"/>
	</clipPath>
	<g clip-path="url(#SVGID_2_)">
		<g>
			<path fill="#2300FF" d="M121.4,95.9c-5.2,0-7.9-2.1-10.3-3.9c-2.2-1.7-4.1-3.2-8.1-3.2c-4,0-5.9,1.5-8.1,3.2
				c-2.4,1.8-5.1,3.9-10.3,3.9c-5.2,0-7.9-2.1-10.3-3.9c-2.2-1.7-4.1-3.2-8.1-3.2c-4,0-5.9,1.5-8.1,3.2c-2.4,1.8-5.1,3.9-10.3,3.9
				c-5.2,0-7.9-2.1-10.3-3.9c-2.2-1.7-4.1-3.2-8.1-3.2v-3.6c5.2,0,7.9,2.1,10.3,3.9c2.2,1.7,4.1,3.2,8.1,3.2c4,0,5.9-1.5,8.1-3.2
				c2.4-1.8,5.1-3.9,10.3-3.9c5.2,0,7.9,2.1,10.3,3.9c2.2,1.7,4.1,3.2,8.1,3.2c4,0,5.9-1.5,8.1-3.2c2.4-1.8,5.1-3.9,10.3-3.9
				c5.2,0,7.9,2.1,10.3,3.9c2.2,1.7,4.1,3.2,8.1,3.2V95.9z"/>
		</g>
		<g>
			<path fill="#2300FF" d="M121.4,77.7c-5.2,0-7.9-2.1-10.3-3.9c-2.2-1.7-4.1-3.2-8.1-3.2c-4,0-5.9,1.5-8.1,3.2
				c-2.4,1.8-5.1,3.9-10.3,3.9c-5.2,0-7.9-2.1-10.3-3.9c-2.2-1.7-4.1-3.2-8.1-3.2c-4,0-5.9,1.5-8.1,3.2c-2.4,1.8-5.1,3.9-10.3,3.9
				c-5.2,0-7.9-2.1-10.3-3.9c-2.2-1.7-4.1-3.2-8.1-3.2V67c5.2,0,7.9,2.1,10.3,3.9c2.2,1.7,4.1,3.2,8.1,3.2c4,0,5.9-1.5,8.1-3.2
				c2.4-1.8,5.1-3.9,10.3-3.9c5.2,0,7.9,2.1,10.3,3.9c2.2,1.7,4.1,3.2,8.1,3.2c4,0,5.9-1.5,8.1-3.2c2.4-1.8,5.1-3.9,10.3-3.9
				c5.2,0,7.9,2.1,10.3,3.9c2.2,1.7,4.1,3.2,8.1,3.2V77.7z"/>
		</g>
		<g>
			<path fill="#2300FF" d="M121.4,59.5c-5.2,0-7.9-2.1-10.3-3.9c-2.2-1.7-4.1-3.2-8.1-3.2c-4,0-5.9,1.5-8.1,3.2
				c-2.4,1.8-5.1,3.9-10.3,3.9c-5.2,0-7.9-2.1-10.3-3.9c-2.2-1.7-4.1-3.2-8.1-3.2c-4,0-5.9,1.5-8.1,3.2c-2.4,1.8-5.1,3.9-10.3,3.9
				c-5.2,0-7.9-2.1-10.3-3.9c-2.2-1.7-4.1-3.2-8.1-3.2v-3.6c5.2,0,7.9,2.1,10.3,3.9c2.2,1.7,4.1,3.2,8.1,3.2c4,0,5.9-1.5,8.1-3.2
				c2.4-1.8,5.1-3.9,10.3-3.9c5.2,0,7.9,2.1,10.3,3.9c2.2,1.7,4.1,3.2,8.1,3.2c4,0,5.9-1.5,8.1-3.2c2.4-1.8,5.1-3.9,10.3-3.9
				c5.2,0,7.9,2.1,10.3,3.9c2.2,1.7,4.1,3.2,8.1,3.2V59.5z"/>
		</g>
		<g>
			<path fill="#2300FF" d="M121.4,41.2c-5.2,0-7.9-2.1-10.3-3.9c-2.2-1.7-4.1-3.2-8.1-3.2c-4,0-5.9,1.5-8.1,3.2
				c-2.4,1.8-5.1,3.9-10.3,3.9c-5.2,0-7.9-2.1-10.3-3.9c-2.2-1.7-4.1-3.2-8.1-3.2c-4,0-5.9,1.5-8.1,3.2c-2.4,1.8-5.1,3.9-10.3,3.9
				c-5.2,0-7.9-2.1-10.3-3.9c-2.2-1.7-4.1-3.2-8.1-3.2v-3.6c5.2,0,7.9,2.1,10.3,3.9c2.2,1.7,4.1,3.2,8.1,3.2c4,0,5.9-1.5,8.1-3.2
				c2.4-1.8,5.1-3.9,10.3-3.9c5.2,0,7.9,2.1,10.3,3.9c2.2,1.7,4.1,3.2,8.1,3.2c4,0,5.9-1.5,8.1-3.2c2.4-1.8,5.1-3.9,10.3-3.9
				c5.2,0,7.9,2.1,10.3,3.9c2.2,1.7,4.1,3.2,8.1,3.2V41.2z"/>
		</g>
		<g>
			<path fill="#2300FF" d="M121.4,23c-5.2,0-7.9-2.1-10.3-3.9c-2.2-1.7-4.1-3.2-8.1-3.2c-4,0-5.9,1.5-8.1,3.2
				C92.6,21,89.9,23,84.7,23c-5.2,0-7.9-2.1-10.3-3.9c-2.2-1.7-4.1-3.2-8.1-3.2c-4,0-5.9,1.5-8.1,3.2C55.9,21,53.2,23,48,23
				c-5.2,0-7.9-2.1-10.3-3.9c-2.2-1.7-4.1-3.2-8.1-3.2v-3.6c5.2,0,7.9,2.1,10.3,3.9c2.2,1.7,4.1,3.2,8.1,3.2c4,0,5.9-1.5,8.1-3.2
				c2.4-1.8,5.1-3.9,10.3-3.9c5.2,0,7.9,2.1,10.3,3.9c2.2,1.7,4.1,3.2,8.1,3.2c4,0,5.9-1.5,8.1-3.2c2.4-1.8,5.1-3.9,10.3-3.9
				c5.2,0,7.9,2.1,10.3,3.9c2.2,1.7,4.1,3.2,8.1,3.2V23z"/>
		</g>
		<g>
			<path fill="#2300FF" d="M121.4,86.8c-5.2,0-7.9-2.1-10.3-3.9c-2.2-1.7-4.1-3.2-8.1-3.2c-4,0-5.9,1.5-8.1,3.2
				c-2.4,1.8-5.1,3.9-10.3,3.9c-5.2,0-7.9-2.1-10.3-3.9c-2.2-1.7-4.1-3.2-8.1-3.2c-4,0-5.9,1.5-8.1,3.2c-2.4,1.8-5.1,3.9-10.3,3.9
				c-5.2,0-7.9-2.1-10.3-3.9c-2.2-1.7-4.1-3.2-8.1-3.2v-3.6c5.2,0,7.9,2.1,10.3,3.9c2.2,1.7,4.1,3.2,8.1,3.2c4,0,5.9-1.5,8.1-3.2
				c2.4-1.8,5.1-3.9,10.3-3.9c5.2,0,7.9,2.1,10.3,3.9c2.2,1.7,4.1,3.2,8.1,3.2c4,0,5.9-1.5,8.1-3.2c2.4-1.8,5.1-3.9,10.3-3.9
				c5.2,0,7.9,2.1,10.3,3.9c2.2,1.7,4.1,3.2,8.1,3.2V86.8z"/>
		</g>
		<g>
			<path fill="#2300FF" d="M121.4,68.6c-5.2,0-7.9-2.1-10.3-3.9c-2.2-1.7-4.1-3.2-8.1-3.2c-4,0-5.9,1.5-8.1,3.2
				c-2.4,1.8-5.1,3.9-10.3,3.9c-5.2,0-7.9-2.1-10.3-3.9c-2.2-1.7-4.1-3.2-8.1-3.2c-4,0-5.9,1.5-8.1,3.2c-2.4,1.8-5.1,3.9-10.3,3.9
				c-5.2,0-7.9-2.1-10.3-3.9c-2.2-1.7-4.1-3.2-8.1-3.2v-3.6c5.2,0,7.9,2.1,10.3,3.9C42.1,63.5,44,65,48,65c4,0,5.9-1.5,8.1-3.2
				c2.4-1.8,5.1-3.9,10.3-3.9c5.2,0,7.9,2.1,10.3,3.9c2.2,1.7,4.1,3.2,8.1,3.2c4,0,5.9-1.5,8.1-3.2c2.4-1.8,5.1-3.9,10.3-3.9
				c5.2,0,7.9,2.1,10.3,3.9c2.2,1.7,4.1,3.2,8.1,3.2V68.6z"/>
		</g>
		<g>
			<path fill="#2300FF" d="M121.4,50.4c-5.2,0-7.9-2.1-10.3-3.9c-2.2-1.7-4.1-3.2-8.1-3.2c-4,0-5.9,1.5-8.1,3.2
				c-2.4,1.8-5.1,3.9-10.3,3.9c-5.2,0-7.9-2.1-10.3-3.9c-2.2-1.7-4.1-3.2-8.1-3.2c-4,0-5.9,1.5-8.1,3.2c-2.4,1.8-5.1,3.9-10.3,3.9
				c-5.2,0-7.9-2.1-10.3-3.9c-2.2-1.7-4.1-3.2-8.1-3.2v-3.6c5.2,0,7.9,2.1,10.3,3.9c2.2,1.7,4.1,3.2,8.1,3.2c4,0,5.9-1.5,8.1-3.2
				c2.4-1.8,5.1-3.9,10.3-3.9c5.2,0,7.9,2.1,10.3,3.9c2.2,1.7,4.1,3.2,8.1,3.2c4,0,5.9-1.5,8.1-3.2c2.4-1.8,5.1-3.9,10.3-3.9
				c5.2,0,7.9,2.1,10.3,3.9c2.2,1.7,4.1,3.2,8.1,3.2V50.4z"/>
		</g>
		<g>
			<path fill="#2300FF" d="M121.4,32.1c-5.2,0-7.9-2.1-10.3-3.9c-2.2-1.7-4.1-3.2-8.1-3.2c-4,0-5.9,1.5-8.1,3.2
				c-2.4,1.8-5.1,3.9-10.3,3.9c-5.2,0-7.9-2.1-10.3-3.9c-2.2-1.7-4.1-3.2-8.1-3.2c-4,0-5.9,1.5-8.1,3.2c-2.4,1.8-5.1,3.9-10.3,3.9
				c-5.2,0-7.9-2.1-10.3-3.9c-2.2-1.7-4.1-3.2-8.1-3.2v-3.6c5.2,0,7.9,2.1,10.3,3.9c2.2,1.7,4.1,3.2,8.1,3.2c4,0,5.9-1.5,8.1-3.2
				c2.4-1.8,5.1-3.9,10.3-3.9c5.2,0,7.9,2.1,10.3,3.9c2.2,1.7,4.1,3.2,8.1,3.2c4,0,5.9-1.5,8.1-3.2c2.4-1.8,5.1-3.9,10.3-3.9
				c5.2,0,7.9,2.1,10.3,3.9c2.2,1.7,4.1,3.2,8.1,3.2V32.1z"/>
		</g>
	</g>
</g>
<g>
	<path fill="#2300FF" d="M18.4,110.9V98.3h3.9c3,0,5.9,1.9,5.9,6.3c0,4.4-2.9,6.3-5.9,6.3H18.4z M20.7,108.7h0.9
		c1.1,0,2-0.2,2.8-0.8c0.9-0.6,1.4-1.7,1.4-3.3s-0.5-2.8-1.4-3.3c-0.8-0.6-1.7-0.8-2.8-0.8h-0.9V108.7z"/>
	<path fill="#2300FF" d="M36.1,98.1c2.2,0,4,0.8,5.1,2.8c0.6,1,0.8,2.2,0.8,3.6c0,2.8-1.2,4.9-3,5.8c-0.9,0.5-1.9,0.7-3,0.7
		c-2.2,0-4-0.8-5.1-2.8c-0.6-1-0.8-2.2-0.8-3.6c0-2.8,1.2-4.9,3-5.8C34,98.4,35,98.1,36.1,98.1z M36.1,100.3c-1,0-1.9,0.4-2.6,1.1
		c-0.7,0.7-1,1.8-1,3.2c0,1.4,0.3,2.5,1,3.2c0.7,0.7,1.5,1.1,2.6,1.1s1.9-0.4,2.5-1.1c0.7-0.7,1-1.8,1-3.2c0-1.4-0.3-2.5-1-3.2
		C38,100.7,37.1,100.3,36.1,100.3z"/>
	<path fill="#2300FF" d="M44.1,98.3h4.6c2.2,0,3.6,1.2,3.6,3.4c0,1-0.5,1.9-1.2,2.3c1.3,0.5,1.9,1.5,1.9,3.1c0,2.4-1.6,3.8-4.2,3.8
		h-4.7V98.3z M46.5,100.4v2.7h2.1c1,0,1.5-0.4,1.5-1.4c0-1-0.5-1.4-1.5-1.4H46.5z M46.5,105.3v3.4h2.1c1.4,0,2-0.6,2-1.7
		c0-1.1-0.7-1.7-2-1.7H46.5z"/>
	<path fill="#2300FF" d="M61.1,105.2l3.5,5.6H62l-3.4-5.4h-1.2v5.4H55V98.3h4.6c2.4,0,3.8,1.4,3.8,3.6
		C63.4,103.5,62.6,104.8,61.1,105.2z M59.6,103.3c1,0,1.5-0.5,1.5-1.4c0-1-0.5-1.4-1.5-1.4h-2.3v2.8H59.6z"/>
	<path fill="#2300FF" d="M66.2,98.3H74v2.2h-5.5v2.6h4.4v2.2h-4.4v3.5h5.6v2.2h-8V98.3z"/>
	<path fill="#2300FF" d="M18.4,117.3H23c2.2,0,3.6,1.2,3.6,3.4c0,1-0.5,1.9-1.2,2.3c1.3,0.5,1.9,1.5,1.9,3.1c0,2.4-1.6,3.8-4.2,3.8
		h-4.7V117.3z M20.7,119.4v2.7h2.1c1,0,1.5-0.4,1.5-1.4s-0.5-1.4-1.5-1.4H20.7z M20.7,124.3v3.4h2.1c1.4,0,2-0.6,2-1.7
		c0-1.1-0.7-1.7-2-1.7H20.7z"/>
	<path fill="#2300FF" d="M32.9,117.3v12.6h-2.3v-12.6H32.9z"/>
	<path fill="#2300FF" d="M46.3,117.3v7.8c0,3.3-1.8,4.9-4.7,4.9s-4.7-1.7-4.7-4.9v-7.8h2.3v7.9c0,1.8,0.8,2.7,2.4,2.7
		c1.6,0,2.4-0.9,2.4-2.7v-7.9H46.3z"/>
	<path fill="#2300FF" d="M55.8,124.2l3.5,5.6h-2.6l-3.4-5.4h-1.2v5.4h-2.3v-12.6h4.6c2.4,0,3.8,1.4,3.8,3.6
		C58.2,122.5,57.3,123.8,55.8,124.2z M54.4,122.3c1,0,1.5-0.5,1.5-1.4c0-1-0.5-1.4-1.5-1.4h-2.3v2.8H54.4z"/>
	<path fill="#2300FF" d="M67.3,117.1c2.2,0,4,0.8,5.1,2.8c0.6,1,0.8,2.2,0.8,3.6c0,2.8-1.2,4.9-3,5.8c-0.9,0.5-1.9,0.7-3,0.7
		c-2.2,0-4-0.8-5.1-2.8c-0.6-1-0.8-2.2-0.8-3.6c0-2.8,1.2-4.9,3-5.8C65.2,117.4,66.2,117.1,67.3,117.1z M67.3,119.3
		c-1,0-1.9,0.4-2.6,1.1c-0.7,0.7-1,1.8-1,3.2c0,1.4,0.3,2.5,1,3.2c0.7,0.7,1.5,1.1,2.6,1.1s1.9-0.4,2.5-1.1c0.7-0.7,1-1.8,1-3.2
		c0-1.4-0.3-2.5-1-3.2C69.2,119.6,68.3,119.3,67.3,119.3z"/>
	<path fill="#2300FF" d="M20.7,143.9v4.9h-2.3v-12.6h4.8c2.6,0,3.9,1.5,3.9,3.8s-1.4,3.8-3.9,3.8H20.7z M23,141.8
		c1.1,0,1.7-0.6,1.7-1.7s-0.6-1.7-1.7-1.7h-2.3v3.3H23z"/>
	<path fill="#2300FF" d="M35.3,143.2l3.5,5.6h-2.6l-3.4-5.4h-1.2v5.4h-2.3v-12.6h4.6c2.4,0,3.8,1.4,3.8,3.6
		C37.6,141.5,36.8,142.8,35.3,143.2z M33.8,141.3c1,0,1.5-0.5,1.5-1.4c0-1-0.5-1.4-1.5-1.4h-2.3v2.8H33.8z"/>
	<path fill="#2300FF" d="M45.5,136.1c2.2,0,4,0.8,5.1,2.8c0.6,1,0.8,2.2,0.8,3.6c0,2.8-1.2,4.9-3,5.8c-0.9,0.5-1.9,0.7-3,0.7
		c-2.2,0-4-0.8-5.1-2.8c-0.6-1-0.8-2.2-0.8-3.6c0-2.8,1.2-4.9,3-5.8C43.4,136.4,44.4,136.1,45.5,136.1z M45.5,138.3
		c-1,0-1.9,0.4-2.6,1.1c-0.7,0.7-1,1.8-1,3.2c0,1.4,0.3,2.5,1,3.2c0.7,0.7,1.5,1.1,2.6,1.1s1.9-0.4,2.5-1.1c0.7-0.7,1-1.8,1-3.2
		c0-1.4-0.3-2.5-1-3.2C47.3,138.6,46.5,138.3,45.5,138.3z"/>
	<path fill="#2300FF" d="M54.6,145.3c0.2,1.1,0.7,1.6,1.6,1.6c1.1,0,1.7-0.6,1.7-2.2v-8.4h2.3v8.2c0,3.3-1.4,4.6-4,4.6
		c-2.2,0-3.6-1.2-3.9-3.3L54.6,145.3z"/>
	<path fill="#2300FF" d="M62.7,136.3h7.8v2.2H65v2.6h4.4v2.2H65v3.5h5.6v2.2h-8V136.3z"/>
	<path fill="#2300FF" d="M72.8,136.3h2.3v4.7l4.3-4.7h2.9l-5.1,5.6l5.5,7h-3l-4.6-6v6h-2.3V136.3z"/>
	<path fill="#2300FF" d="M83.1,138.4v-2.2h9.3v2.2H89v10.4h-2.3v-10.4H83.1z"/>
	<path fill="#2300FF" d="M99.4,136.1c2.2,0,4,0.8,5.1,2.8c0.6,1,0.8,2.2,0.8,3.6c0,2.8-1.2,4.9-3,5.8c-0.9,0.5-1.9,0.7-3,0.7
		c-2.2,0-4-0.8-5.1-2.8c-0.6-1-0.8-2.2-0.8-3.6c0-2.8,1.2-4.9,3-5.8C97.3,136.4,98.3,136.1,99.4,136.1z M99.4,138.3
		c-1,0-1.9,0.4-2.6,1.1c-0.7,0.7-1,1.8-1,3.2c0,1.4,0.3,2.5,1,3.2c0.7,0.7,1.5,1.1,2.6,1.1s1.9-0.4,2.5-1.1c0.7-0.7,1-1.8,1-3.2
		c0-1.4-0.3-2.5-1-3.2C101.2,138.6,100.4,138.3,99.4,138.3z"/>
	<path fill="#2300FF" d="M119.7,136.3h2.5l-3.3,12.6h-2.4l-2.3-7.4l-2.3,7.4h-2.4l-3.3-12.6h2.5l2.1,9.3l2.4-7.9h2l2.4,7.9
		L119.7,136.3z"/>
	<path fill="#2300FF" d="M123.8,136.3h7.8v2.2h-5.5v2.6h4.4v2.2h-4.4v3.5h5.6v2.2h-8V136.3z"/>
</g>
<g>
	<path fill="#2D00FF" d="M8.5,149.9c-1.7,0-3-1.3-3-3V8.4c0-1.7,1.3-3,3-3h99.9c1.7,0,3,1.3,3,3v16l26.6-20c0.9-0.7,2.1-0.8,3.1-0.3
		c1,0.5,1.7,1.5,1.7,2.7V82c0,0.8-0.3,1.5-0.8,2l-31.4,33.7c-0.8,0.9-2.1,1.2-3.3,0.7c-1.1-0.5-1.9-1.6-1.9-2.8V36.4l-63.7,48
		c-0.9,0.7-2.1,0.8-3.1,0.3c-1-0.5-1.7-1.5-1.7-2.7V11.4H11.5v135.5C11.5,148.5,10.2,149.9,8.5,149.9z M111.4,31.9v76.2l25.4-27.3
		v-68L111.4,31.9z M42.9,11.4V76l62.5-47.1V11.4H42.9z"/>
</g>
</svg>
